<svg xmlns="http://www.w3.org/2000/svg" width="20" height="85" viewBox="0 0 20 85" fill="none">
  <g filter="url(#filter0_b_95_1168)">
    <rect width="20" height="85" rx="4" fill="#8C8C8C" fill-opacity="0.12" style="fill:#8C8C8C;fill:color(display-p3 0.5500 0.5500 0.5500);fill-opacity:0.12;"/>
    <rect x="0.5" y="0.5" width="19" height="84" rx="3.5" stroke="#2C2C2C" style="stroke:#2C2C2C;stroke:color(display-p3 0.1708 0.1708 0.1708);stroke-opacity:1;"/>
    <path fill-rule="evenodd" clip-rule="evenodd" d="M10 79C9.44772 79 9 78.5523 9 78L9 24C9 23.4477 9.44772 23 10 23C10.5523 23 11 23.4477 11 24L11 78C11 78.5523 10.5523 79 10 79Z" fill="#D339C4" style="fill:#D339C4;fill:color(display-p3 0.8292 0.2246 0.7687);fill-opacity:1;"/>
    <path d="M11.7321 16C10.9623 17.3333 9.03775 17.3333 8.26795 16L4.80385 10C4.03405 8.66666 4.9963 7 6.5359 7L13.4641 7C15.0037 7 15.966 8.66666 15.1962 10L11.7321 16Z" fill="#D339C4" style="fill:#D339C4;fill:color(display-p3 0.8292 0.2246 0.7687);fill-opacity:1;"/>
  </g>
  <defs>
    <filter id="filter0_b_95_1168" x="-16" y="-16" width="52" height="117" filterUnits="userSpaceOnUse" color-interpolation-filters="sRGB">
      <feFlood flood-opacity="0" result="BackgroundImageFix"/>
      <feGaussianBlur in="BackgroundImageFix" stdDeviation="8"/>
      <feComposite in2="SourceAlpha" operator="in" result="effect1_backgroundBlur_95_1168"/>
      <feBlend mode="normal" in="SourceGraphic" in2="effect1_backgroundBlur_95_1168" result="shape"/>
    </filter>
  </defs>
</svg>