<svg xmlns="http://www.w3.org/2000/svg" width="22" height="16" viewBox="0 0 22 16" fill="none">
  <g clip-path="url(#clip0_650_6650)">
    <path d="M18.7558 1.44404C17.3761 0.818954 15.9195 0.375499 14.4234 0.125C14.2186 0.487185 14.0334 0.859825 13.8684 1.24136C12.2747 1.00371 10.6539 1.00371 9.06022 1.24136C8.89515 0.859864 8.7099 0.487229 8.50524 0.125C7.0081 0.377615 5.55058 0.822123 4.16947 1.44731C1.42761 5.46163 0.684336 9.37625 1.05597 13.2353C2.66168 14.4093 4.45891 15.3021 6.36957 15.875C6.79979 15.3024 7.18048 14.6949 7.5076 14.0591C6.88628 13.8294 6.28659 13.5461 5.71548 13.2124C5.86579 13.1045 6.01279 12.9934 6.15484 12.8855C7.81664 13.6589 9.6304 14.0598 11.4668 14.0598C13.3032 14.0598 15.1169 13.6589 16.7787 12.8855C16.9224 13.0016 17.0694 13.1127 17.2181 13.2124C16.6459 13.5467 16.0451 13.8305 15.4227 14.0607C15.7494 14.6963 16.1301 15.3032 16.5607 15.875C18.473 15.3044 20.2716 14.412 21.8776 13.2369C22.3136 8.76168 21.1327 4.88302 18.7558 1.44404ZM7.97834 10.862C6.94271 10.862 6.08712 9.93197 6.08712 8.78783C6.08712 7.64368 6.91298 6.70548 7.97504 6.70548C9.0371 6.70548 9.88608 7.64368 9.86791 8.78783C9.84974 9.93197 9.03379 10.862 7.97834 10.862ZM14.9552 10.862C13.9179 10.862 13.0656 9.93197 13.0656 8.78783C13.0656 7.64368 13.8915 6.70548 14.9552 6.70548C16.0189 6.70548 16.8613 7.64368 16.8431 8.78783C16.825 9.93197 16.0107 10.862 14.9552 10.862Z" fill="#6A6A6A" style="fill:#6A6A6A;fill:color(display-p3 0.4156 0.4156 0.4156);fill-opacity:1;"/>
  </g>
  <defs>
    <clipPath id="clip0_650_6650">
      <rect width="21" height="15.75" fill="white" style="fill:white;fill-opacity:1;" transform="translate(0.966797 0.125)"/>
    </clipPath>
  </defs>
</svg>