<svg xmlns="http://www.w3.org/2000/svg" width="29" height="28" viewBox="0 0 29 28" fill="none">
  <path d="M12.8116 14.5271C13.8383 15.1075 14.3516 15.3978 14.9155 15.3982C15.4793 15.3987 15.9931 15.1094 17.0209 14.5307L23.5724 10.8421C23.8682 10.6756 24.0505 10.367 24.0505 10.0328C24.0505 9.69869 23.8682 9.39004 23.5724 9.22353L17.0186 5.53358C15.9919 4.95555 15.4785 4.66653 14.9153 4.66675C14.352 4.66696 13.839 4.95637 12.8127 5.53519L7.1786 8.71301C7.13683 8.73657 7.11596 8.74837 7.0965 8.75952C5.17192 9.86301 3.98286 11.8776 3.96696 14.0618C3.9668 14.0839 3.9668 14.1075 3.9668 14.1547C3.9668 14.2018 3.9668 14.2254 3.96696 14.2475C3.98282 16.4292 5.16924 18.442 7.09038 19.5463C7.10979 19.5575 7.13066 19.5693 7.17234 19.5929L10.7016 21.5886C12.758 22.7516 13.7862 23.333 14.9154 23.3334C16.0445 23.3338 17.0732 22.753 19.1304 21.5914L22.856 19.4879C23.8861 18.9062 24.4012 18.6154 24.684 18.136C24.9668 17.6566 24.9668 17.0743 24.9668 15.9097V13.6599C24.9668 13.3369 24.7882 13.0391 24.5 12.8819C24.2211 12.7298 23.8812 12.7321 23.6045 12.8879L15.9652 17.1889C15.4526 17.4775 15.1963 17.6218 14.9151 17.6219C14.6339 17.6219 14.3775 17.4778 13.8648 17.1896L8.69434 14.2826C8.43535 14.137 8.30584 14.0642 8.20183 14.051C7.96469 14.021 7.73668 14.1511 7.64634 14.368C7.60674 14.4631 7.60753 14.6093 7.60914 14.9018C7.61032 15.1172 7.61091 15.2248 7.63145 15.3239C7.67748 15.5457 7.79659 15.7465 7.97053 15.8954C8.0482 15.962 8.14339 16.0158 8.33383 16.1234L13.8619 19.2485C14.376 19.5391 14.633 19.6843 14.9152 19.6844C15.1975 19.6845 15.4546 19.5393 15.9688 19.249L22.7446 15.4235C22.9202 15.3243 23.0081 15.2747 23.0739 15.312C23.1397 15.3493 23.1397 15.4485 23.1397 15.6471V16.6675C23.1397 16.9587 23.1397 17.1043 23.069 17.2241C22.9983 17.344 22.8696 17.4167 22.612 17.5621L17.0233 20.7174C15.9944 21.2983 15.48 21.5888 14.9153 21.5885C14.3506 21.5882 13.8365 21.2974 12.8081 20.7155L7.57944 17.7572C7.56284 17.7478 7.55454 17.7431 7.54679 17.7387C6.45047 17.1112 5.77399 15.9633 5.76765 14.7196C5.7676 14.7108 5.7676 14.7015 5.7676 14.6827V13.746C5.7676 13.0594 6.14094 12.4248 6.74739 12.0805C7.28327 11.7763 7.94428 11.7757 8.48073 12.0789L12.8116 14.5271Z" fill="#6A6A6A" style="fill:#6A6A6A;fill:color(display-p3 0.4156 0.4156 0.4156);fill-opacity:1;"/>
</svg>