<svg xmlns="http://www.w3.org/2000/svg" width="29" height="28" viewBox="0 0 29 28" fill="none">
  <path d="M6.4668 6V22H22.4668V6H6.4668ZM19.7588 9.79067L18.9008 10.6133C18.8644 10.641 18.8363 10.6782 18.8195 10.7207C18.8027 10.7632 18.7978 10.8096 18.8055 10.8547V16.8993C18.798 16.9443 18.8029 16.9905 18.8197 17.0329C18.8365 17.0753 18.8645 17.1124 18.9008 17.14L19.7388 17.9627V18.1433H15.5241V17.9633L16.3921 17.12C16.4775 17.0347 16.4775 17.01 16.4775 16.88V11.9933L14.0641 18.1233H13.7375L10.9268 11.9933V16.102C10.9152 16.1872 10.9232 16.2739 10.9501 16.3556C10.977 16.4372 11.0222 16.5117 11.0821 16.5733L12.2115 17.9427V18.1233H9.01013V17.9433L10.1401 16.5733C10.1996 16.5117 10.2437 16.4369 10.269 16.355C10.2942 16.2731 10.2999 16.1865 10.2855 16.102V11.3513C10.2921 11.2863 10.2833 11.2205 10.2598 11.1595C10.2363 11.0984 10.1987 11.0438 10.1501 11L9.14613 9.79067V9.61067H12.2621L14.6708 14.8927L16.7881 9.61H19.7588V9.79067Z" fill="#6A6A6A" style="fill:#6A6A6A;fill:color(display-p3 0.4156 0.4156 0.4156);fill-opacity:1;"/>
</svg>