<svg xmlns="http://www.w3.org/2000/svg" width="29" height="28" viewBox="0 0 29 28" fill="none">
  <path fill-rule="evenodd" clip-rule="evenodd" d="M23.2168 14C23.2168 18.8325 19.2993 22.75 14.4668 22.75C9.63431 22.75 5.7168 18.8325 5.7168 14C5.7168 9.16751 9.63431 5.25 14.4668 5.25C19.2993 5.25 23.2168 9.16751 23.2168 14ZM14.7803 11.7096C13.9293 12.0636 12.2283 12.7962 9.67751 13.9076C9.2633 14.0723 9.04632 14.2334 9.02657 14.391C8.99318 14.6573 9.32665 14.7622 9.78075 14.9049C9.84251 14.9244 9.90652 14.9445 9.97213 14.9658C10.4189 15.111 11.0199 15.2809 11.3323 15.2877C11.6157 15.2938 11.932 15.177 12.2812 14.9372C14.6645 13.3284 15.8947 12.5152 15.972 12.4977C16.0265 12.4853 16.102 12.4698 16.1531 12.5153C16.2043 12.5607 16.1993 12.6469 16.1939 12.67C16.1608 12.8108 14.8519 14.0277 14.1745 14.6575C13.9633 14.8538 13.8135 14.9931 13.7829 15.0249C13.7143 15.0961 13.6444 15.1635 13.5772 15.2283C13.1621 15.6284 12.8509 15.9285 13.5944 16.4185C13.9517 16.6539 14.2376 16.8486 14.5229 17.0429C14.8344 17.255 15.1451 17.4666 15.5471 17.7301C15.6495 17.7973 15.7473 17.867 15.8426 17.9349C16.2051 18.1934 16.5308 18.4256 16.9332 18.3885C17.167 18.367 17.4086 18.1472 17.5312 17.4915C17.8211 15.9418 18.3909 12.5842 18.5225 11.2007C18.5341 11.0795 18.5196 10.9243 18.5079 10.8562C18.4963 10.7881 18.4719 10.6911 18.3834 10.6193C18.2785 10.5342 18.1167 10.5162 18.0443 10.5175C17.7152 10.5233 17.2103 10.6989 14.7803 11.7096Z" fill="#6A6A6A" style="fill:#6A6A6A;fill:color(display-p3 0.4156 0.4156 0.4156);fill-opacity:1;"/>
</svg>