<svg width="178" height="69" viewBox="0 0 178 69" fill="none" xmlns="http://www.w3.org/2000/svg">
<path d="M140.5 0.988095V1.4881H141L141.5 1.4881V2.46429H141H140.5V2.96429V4.94048V5.44048H141H141.5V6.41667H141H140.5V6.91667V8.89286V9.39286H141H141.5V10.369H141H140.5V10.869V12.8452V13.3452H141H141.5V14.3214H141H140.5V14.8214V16.7976V17.2976H141H141.5V18.2738H141H140.5V18.7738V20.75V21.25H141H141.5V22.2262H141H140.5V22.7262V24.7024V25.2024H141H141.5V26.1786H141H140.5V26.6786V28.6548V29.1548H141H141.5V30.131H141H140.5V30.631V32.6071V33.1071H141H141.5V34.0833H141H140.5V34.5833V36.5595V37.0595H141H141.5V38.0357H141H140.5V38.5357V40.5119V41.0119H141H141.5V41.9881H141H140.5V42.4881V44.4643V44.9643H141H141.5V45.9405H141H140.5V46.4405V48.4167V48.9167H141H141.5V49.8928H141H140.5V50.3928V52.369V52.869H141H141.5V53.8452H141H140.5V54.3452V56.3214V56.8214H141H141.5V57.7976H141H140.5V58.2976V60.2738V60.7738H141H141.5V61.75H141H140.5V62.25V64.2262V64.7262H141H141.5V65.7024H141H140.5V66.2024V68.1785V68.5H8.0858C7.0495 64.8363 4.1637 61.9505 0.5 60.9142V8.0858C4.1637 7.04949 7.04949 4.1637 8.0858 0.5H140.5V0.988095Z" fill="url(#paint0_linear_2032_422)" stroke="url(#paint1_linear_2032_422)"/>
<path fill-rule="evenodd" clip-rule="evenodd" d="M172.299 0C173.055 3.09429 175.182 5.65097 178 6.98955V62.0104C175.182 63.349 173.055 65.9057 172.299 69H142V68.1785H143L143 66.2024H142V64.2262H143L143 62.25H142V60.2738H143L143 58.2976H142V56.3214H143L143 54.3452H142V52.369H143L143 50.3928H142V48.4167H143L143 46.4405H142V44.4643H143L143 42.4881H142V40.5119H143L143 38.5357H142V36.5595H143L143 34.5833H142V32.6071H143L143 30.631H142V28.6548H143L143 26.6786H142V24.7024H143L143 22.7262H142V20.75H143L143 18.7738H142V16.7976H143L143 14.8214H142V12.8452H143L143 10.869H142V8.89286H143L143 6.91667H142V4.94048H143L143 2.96429H142V0.988095L143 0.988095L143 0H172.299Z" fill="url(#paint2_linear_2032_422)"/>
<rect width="18" height="58" transform="translate(150 6)" fill="url(#paint3_linear_2032_422)"/>
<path fill-rule="evenodd" clip-rule="evenodd" d="M168 7C168 7.55228 167.552 8 167 8H151C150.448 8 150 7.55228 150 7V7C150 6.44772 150.448 6 151 6H167C167.552 6 168 6.44772 168 7V7Z" fill="#2D2D2D"/>
<path fill-rule="evenodd" clip-rule="evenodd" d="M168 11C168 11.5523 167.552 12 167 12H151C150.448 12 150 11.5523 150 11V11C150 10.4477 150.448 10 151 10H167C167.552 10 168 10.4477 168 11V11Z" fill="#2D2D2D"/>
<path fill-rule="evenodd" clip-rule="evenodd" d="M168 15C168 15.5523 167.552 16 167 16H151C150.448 16 150 15.5523 150 15V15C150 14.4477 150.448 14 151 14H167C167.552 14 168 14.4477 168 15V15Z" fill="#2D2D2D"/>
<path fill-rule="evenodd" clip-rule="evenodd" d="M168 19C168 19.5523 167.552 20 167 20H151C150.448 20 150 19.5523 150 19V19C150 18.4477 150.448 18 151 18H167C167.552 18 168 18.4477 168 19V19Z" fill="#2D2D2D"/>
<path fill-rule="evenodd" clip-rule="evenodd" d="M168 23C168 23.5523 167.552 24 167 24H151C150.448 24 150 23.5523 150 23V23C150 22.4477 150.448 22 151 22H167C167.552 22 168 22.4477 168 23V23Z" fill="#2D2D2D"/>
<path fill-rule="evenodd" clip-rule="evenodd" d="M168 27C168 27.5523 167.552 28 167 28H151C150.448 28 150 27.5523 150 27V27C150 26.4477 150.448 26 151 26H167C167.552 26 168 26.4477 168 27V27Z" fill="#2D2D2D"/>
<path fill-rule="evenodd" clip-rule="evenodd" d="M168 31C168 31.5523 167.552 32 167 32H151C150.448 32 150 31.5523 150 31V31C150 30.4477 150.448 30 151 30H167C167.552 30 168 30.4477 168 31V31Z" fill="#2D2D2D"/>
<path fill-rule="evenodd" clip-rule="evenodd" d="M168 35C168 35.5523 167.552 36 167 36H151C150.448 36 150 35.5523 150 35V35C150 34.4477 150.448 34 151 34H167C167.552 34 168 34.4477 168 35V35Z" fill="#2D2D2D"/>
<path fill-rule="evenodd" clip-rule="evenodd" d="M168 39C168 39.5523 167.552 40 167 40H151C150.448 40 150 39.5523 150 39V39C150 38.4477 150.448 38 151 38H167C167.552 38 168 38.4477 168 39V39Z" fill="#2D2D2D"/>
<path fill-rule="evenodd" clip-rule="evenodd" d="M168 43C168 43.5523 167.552 44 167 44H151C150.448 44 150 43.5523 150 43V43C150 42.4477 150.448 42 151 42H167C167.552 42 168 42.4477 168 43V43Z" fill="#2D2D2D"/>
<path fill-rule="evenodd" clip-rule="evenodd" d="M168 47C168 47.5523 167.552 48 167 48H151C150.448 48 150 47.5523 150 47V47C150 46.4477 150.448 46 151 46H167C167.552 46 168 46.4477 168 47V47Z" fill="#2D2D2D"/>
<path fill-rule="evenodd" clip-rule="evenodd" d="M168 51C168 51.5523 167.552 52 167 52H151C150.448 52 150 51.5523 150 51V51C150 50.4477 150.448 50 151 50H167C167.552 50 168 50.4477 168 51V51Z" fill="#2D2D2D"/>
<path fill-rule="evenodd" clip-rule="evenodd" d="M168 55C168 55.5523 167.552 56 167 56H151C150.448 56 150 55.5523 150 55V55C150 54.4477 150.448 54 151 54H167C167.552 54 168 54.4477 168 55V55Z" fill="#2D2D2D"/>
<path fill-rule="evenodd" clip-rule="evenodd" d="M168 59C168 59.5523 167.552 60 167 60H151C150.448 60 150 59.5523 150 59V59C150 58.4477 150.448 58 151 58H167C167.552 58 168 58.4477 168 59V59Z" fill="#2D2D2D"/>
<path fill-rule="evenodd" clip-rule="evenodd" d="M168 63C168 63.5523 167.552 64 167 64H151C150.448 64 150 63.5523 150 63V63C150 62.4477 150.448 62 151 62H167C167.552 62 168 62.4477 168 63V63Z" fill="#2D2D2D"/>
<defs>
<linearGradient id="paint0_linear_2032_422" x1="71" y1="0" x2="71" y2="69" gradientUnits="userSpaceOnUse">
<stop stop-color="#313131"/>
<stop offset="1" stop-color="#1F1D1D"/>
</linearGradient>
<linearGradient id="paint1_linear_2032_422" x1="71" y1="69" x2="71" y2="0" gradientUnits="userSpaceOnUse">
<stop stop-color="#212020"/>
<stop offset="1" stop-color="#383838"/>
</linearGradient>
<linearGradient id="paint2_linear_2032_422" x1="160" y1="69" x2="160" y2="0" gradientUnits="userSpaceOnUse">
<stop stop-color="#212020"/>
<stop offset="1" stop-color="#383838"/>
</linearGradient>
<linearGradient id="paint3_linear_2032_422" x1="9" y1="58" x2="9" y2="0" gradientUnits="userSpaceOnUse">
<stop stop-color="#212020"/>
<stop offset="1" stop-color="#383838"/>
</linearGradient>
</defs>
</svg>
